<?xml version="1.0" encoding="utf-8"?>
<!-- Generator: Adobe Illustrator 18.0.0, SVG Export Plug-In . SVG Version: 6.00 Build 0)  -->
<!DOCTYPE svg PUBLIC "-//W3C//DTD SVG 1.1//EN" "http://www.w3.org/Graphics/SVG/1.1/DTD/svg11.dtd">
<svg version="1.1" id="Capa_1" xmlns="http://www.w3.org/2000/svg" xmlns:xlink="http://www.w3.org/1999/xlink" x="0px" y="0px"
	 viewBox="0 0 50 25" enable-background="new 0 0 50 25" xml:space="preserve">
<g>
	<path fill="#AEADB3" d="M47,0H3C1.3,0,0,1.3,0,3v19c0,1.7,1.3,3,3,3h44c1.7,0,3-1.3,3-3V3C50,1.3,48.7,0,47,0z M11.9,16.4
		c0.4,0.6,1,0.9,1.7,0.9c0.5,0,1-0.2,1.4-0.5s0.6-0.7,0.6-1.3h0.7l0,0c0,0.7-0.3,1.3-0.8,1.7c-0.6,0.5-1.2,0.7-1.9,0.7
		c-1,0-1.8-0.3-2.3-1c-0.5-0.7-0.8-1.6-0.8-2.7v-0.3c0-1.1,0.3-2,0.8-2.7s1.3-1,2.3-1c0.8,0,1.5,0.2,2,0.7c0.5,0.5,0.8,1.1,0.8,1.9
		l0,0h-0.7c0-0.6-0.2-1.1-0.6-1.4c-0.4-0.4-0.9-0.5-1.4-0.5c-0.8,0-1.4,0.3-1.7,0.9c-0.4,0.6-0.6,1.3-0.6,2.1v0.3
		C11.3,15.1,11.5,15.8,11.9,16.4z M19,17.8h-0.8V7.1H19V17.8z M26.8,14.1h-5.1v0.2c0,0.8,0.2,1.5,0.6,2.1c0.4,0.6,1,0.8,1.8,0.8
		c0.5,0,0.9-0.1,1.2-0.2c0.4-0.1,0.7-0.3,0.9-0.6l0.3,0.6c-0.3,0.3-0.6,0.5-1,0.7c-0.4,0.2-0.9,0.3-1.5,0.3c-1,0-1.7-0.3-2.3-1
		c-0.6-0.7-0.9-1.5-0.9-2.6v-0.4c0-1.1,0.3-1.9,0.9-2.6c0.6-0.7,1.4-1,2.2-1c0.9,0,1.6,0.3,2.1,0.9c0.5,0.6,0.7,1.4,0.7,2.3V14.1z
		 M33.2,17.8c0-0.3-0.1-0.5-0.1-0.7c0-0.2,0-0.4,0-0.6c-0.3,0.4-0.6,0.7-1.1,1c-0.5,0.3-1,0.4-1.6,0.4c-0.7,0-1.3-0.2-1.7-0.6
		c-0.4-0.4-0.6-0.9-0.6-1.6c0-0.7,0.3-1.2,0.9-1.6s1.3-0.6,2.3-0.6H33v-0.9c0-0.5-0.2-0.9-0.5-1.2c-0.3-0.3-0.8-0.5-1.4-0.5
		c-0.6,0-1,0.1-1.4,0.4c-0.3,0.3-0.5,0.6-0.5,1h-0.8l0,0c0-0.6,0.2-1,0.7-1.5c0.5-0.4,1.2-0.6,2-0.6s1.5,0.2,2,0.6s0.7,1,0.7,1.8
		v3.6c0,0.3,0,0.5,0,0.8c0,0.2,0.1,0.5,0.1,0.7H33.2z M39.4,11.1l-0.6,0c-0.5,0-0.9,0.1-1.3,0.4c-0.3,0.3-0.6,0.7-0.7,1.2v5.1H36
		v-7.4h0.7l0.1,1.2v0.1c0.2-0.5,0.5-0.8,0.9-1.1s0.8-0.4,1.3-0.4c0.1,0,0.2,0,0.3,0s0.2,0,0.2,0.1L39.4,11.1z"/>
	<path fill="#AEADB3" d="M24,10.9c-0.6,0-1.1,0.2-1.6,0.7s-0.6,1-0.7,1.7l0,0H26v-0.2c0-0.7-0.2-1.2-0.5-1.6
		C25.2,11.1,24.7,10.9,24,10.9z"/>
	<path fill="#AEADB3" d="M29.6,14.6c-0.4,0.3-0.6,0.7-0.6,1.1c0,0.4,0.1,0.8,0.4,1c0.3,0.3,0.7,0.4,1.1,0.4c0.6,0,1.2-0.1,1.6-0.4
		c0.5-0.3,0.8-0.7,0.9-1.2v-1.4h-1.8C30.5,14.2,30,14.3,29.6,14.6z"/>
</g>
</svg>
