<?xml version="1.0" encoding="utf-8"?>
<!-- Generator: Adobe Illustrator 18.0.0, SVG Export Plug-In . SVG Version: 6.00 Build 0)  -->
<!DOCTYPE svg PUBLIC "-//W3C//DTD SVG 1.1//EN" "http://www.w3.org/Graphics/SVG/1.1/DTD/svg11.dtd">
<svg version="1.1" id="Capa_1" xmlns="http://www.w3.org/2000/svg" xmlns:xlink="http://www.w3.org/1999/xlink" x="0px" y="0px"
	 viewBox="0 0 50 25" enable-background="new 0 0 50 25" xml:space="preserve">
<g>
	<path fill="#AEADB3" d="M47,0H3C1.3,0,0,1.3,0,3v19c0,1.7,1.3,3,3,3h44c1.7,0,3-1.3,3-3V3C50,1.3,48.7,0,47,0z M22.2,16.6h-0.8
		v-4.3c0-0.9-0.2-1.6-0.5-1.9c-0.3-0.4-0.8-0.6-1.3-0.6c-0.6,0-1.1,0.2-1.4,0.6s-0.6,0.9-0.6,1.5c0,0.1,0,0.1,0,0.2s0,0.1,0,0.2v4.4
		h-0.8v-4.3c0-0.9-0.2-1.5-0.5-1.9s-0.8-0.6-1.3-0.6c-0.6,0-1,0.1-1.4,0.4s-0.6,0.7-0.7,1.2v5.2h-0.8V9.2h0.7l0.1,1.2
		c0.2-0.4,0.6-0.8,0.9-1S14.5,9,15.1,9c0.6,0,1,0.1,1.4,0.4s0.6,0.7,0.8,1.2c0.2-0.5,0.5-0.9,1-1.2S19.2,9,19.8,9
		c0.8,0,1.4,0.3,1.8,0.8c0.4,0.5,0.6,1.3,0.6,2.4V16.6z M30.3,13.1c0,1.1-0.3,2-0.8,2.6c-0.5,0.7-1.2,1-2.1,1c-0.5,0-1-0.1-1.4-0.3
		c-0.4-0.2-0.7-0.5-1-0.8v3.8h-0.8V9.2H25l0.2,1.2c0.2-0.4,0.6-0.7,1-1S27,9,27.5,9c0.9,0,1.6,0.4,2.1,1.1s0.8,1.7,0.8,2.8V13.1z
		 M37.2,16c-0.6,0.5-1.3,0.8-2.2,0.8c-0.8,0-1.6-0.2-2.2-0.7c-0.7-0.5-1-1.2-0.9-2.1l0,0h0.8c0,0.6,0.2,1.1,0.7,1.5s1,0.6,1.7,0.6
		c0.7,0,1.2-0.2,1.6-0.6c0.4-0.4,0.6-0.9,0.6-1.6c0-0.7-0.2-1.2-0.6-1.6c-0.4-0.3-1-0.5-1.8-0.5h-0.9v-0.7h0.9
		c0.7,0,1.3-0.2,1.6-0.5s0.6-0.8,0.6-1.4c0-0.6-0.2-1.1-0.5-1.4c-0.3-0.4-0.9-0.6-1.5-0.6c-0.6,0-1.2,0.2-1.6,0.6s-0.6,0.9-0.6,1.5
		H32l0,0c0-0.8,0.3-1.4,0.8-1.9s1.3-0.8,2.2-0.8c0.9,0,1.6,0.2,2.1,0.7c0.5,0.5,0.8,1.2,0.8,2c0,0.5-0.1,0.9-0.4,1.3
		c-0.3,0.4-0.7,0.7-1.2,0.9c0.6,0.2,1,0.5,1.3,0.9c0.3,0.4,0.5,0.9,0.5,1.5C38.1,14.8,37.8,15.5,37.2,16z"/>
	<path fill="#AEADB3" d="M27.3,9.8c-0.5,0-1,0.1-1.3,0.4c-0.3,0.3-0.6,0.6-0.8,1v3.6c0.2,0.4,0.5,0.7,0.8,0.9
		c0.4,0.2,0.8,0.3,1.3,0.3c0.7,0,1.3-0.3,1.6-0.8c0.4-0.5,0.6-1.3,0.6-2.1v-0.1c0-0.9-0.2-1.7-0.6-2.3S28,9.8,27.3,9.8z"/>
</g>
</svg>
