<?xml version="1.0" encoding="utf-8"?>
<!-- Generator: Adobe Illustrator 18.0.0, SVG Export Plug-In . SVG Version: 6.00 Build 0)  -->
<!DOCTYPE svg PUBLIC "-//W3C//DTD SVG 1.1//EN" "http://www.w3.org/Graphics/SVG/1.1/DTD/svg11.dtd">
<svg version="1.1" id="Capa_1" xmlns="http://www.w3.org/2000/svg" xmlns:xlink="http://www.w3.org/1999/xlink" x="0px" y="0px"
	 viewBox="0 0 50 25" enable-background="new 0 0 50 25" xml:space="preserve">
<path fill="#AEADB3" d="M47,0H3C1.3,0,0,1.3,0,3v19c0,1.7,1.3,3,3,3h44c1.7,0,3-1.3,3-3V3C50,1.3,48.7,0,47,0z M22.4,16.6h-0.8v-4.3
	c0-0.9-0.2-1.6-0.5-1.9c-0.3-0.4-0.8-0.6-1.3-0.6c-0.6,0-1.1,0.2-1.5,0.6s-0.6,0.9-0.6,1.5c0,0.1,0,0.1,0,0.2c0,0.1,0,0.1,0,0.2v4.4
	h-0.8v-4.3c0-0.9-0.2-1.5-0.5-1.9C16,10,15.6,9.8,15,9.8c-0.6,0-1,0.1-1.4,0.4c-0.3,0.3-0.6,0.7-0.7,1.2v5.2h-0.8V9.2h0.7l0.1,1.2
	c0.2-0.4,0.6-0.8,0.9-1C14.2,9.2,14.7,9,15.2,9c0.6,0,1,0.1,1.4,0.4c0.4,0.3,0.6,0.7,0.8,1.2c0.2-0.5,0.5-0.9,1-1.2
	C18.8,9.2,19.3,9,19.9,9c0.8,0,1.4,0.3,1.8,0.8c0.4,0.5,0.6,1.3,0.6,2.4V16.6z M29.6,16c-0.6,0.5-1.3,0.8-2.2,0.8
	c-0.8,0-1.6-0.2-2.2-0.7c-0.7-0.5-1-1.2-0.9-2.1l0,0H25c0,0.6,0.2,1.1,0.7,1.5s1,0.6,1.7,0.6c0.7,0,1.2-0.2,1.6-0.6s0.6-0.9,0.6-1.6
	c0-0.7-0.2-1.2-0.6-1.6c-0.4-0.3-1-0.5-1.8-0.5h-0.9v-0.7h0.9c0.7,0,1.3-0.2,1.6-0.5s0.6-0.8,0.6-1.4c0-0.6-0.2-1.1-0.5-1.4
	S28,7.2,27.4,7.2c-0.6,0-1.2,0.2-1.6,0.6s-0.6,0.9-0.6,1.5h-0.8l0,0c0-0.8,0.3-1.4,0.8-1.9s1.3-0.8,2.2-0.8c0.9,0,1.6,0.2,2.1,0.7
	c0.5,0.5,0.8,1.2,0.8,2c0,0.5-0.1,0.9-0.4,1.3c-0.3,0.4-0.7,0.7-1.2,0.9c0.6,0.2,1,0.5,1.3,0.9c0.3,0.4,0.5,0.9,0.5,1.5
	C30.4,14.8,30.1,15.5,29.6,16z M37.9,16.6h-0.7l-0.1-1.2c-0.2,0.4-0.6,0.8-1,1c-0.4,0.2-0.9,0.3-1.4,0.3c-0.8,0-1.4-0.3-1.8-0.8
	s-0.7-1.3-0.7-2.5V9.2h0.8v4.3c0,0.9,0.2,1.5,0.5,1.9c0.3,0.4,0.7,0.6,1.3,0.6c0.6,0,1.1-0.1,1.5-0.4c0.4-0.3,0.6-0.7,0.8-1.1V9.2
	h0.8V16.6z"/>
</svg>
