<?xml version="1.0" encoding="utf-8"?>
<!-- Generator: Adobe Illustrator 18.0.0, SVG Export Plug-In . SVG Version: 6.00 Build 0)  -->
<!DOCTYPE svg PUBLIC "-//W3C//DTD SVG 1.1//EN" "http://www.w3.org/Graphics/SVG/1.1/DTD/svg11.dtd">
<svg version="1.1" id="Capa_1" xmlns="http://www.w3.org/2000/svg" xmlns:xlink="http://www.w3.org/1999/xlink" x="0px" y="0px"
	 viewBox="0 0 50 25" enable-background="new 0 0 50 25" xml:space="preserve">
<g>
	<path fill="#AEADB3" d="M19.9,13.1c-0.4,0.3-0.7,0.7-0.7,1.1c0,0.4,0.1,0.8,0.4,1s0.7,0.4,1.1,0.4c0.6,0,1.2-0.1,1.6-0.4
		c0.5-0.3,0.8-0.7,0.9-1.2v-1.4h-1.8C20.9,12.6,20.4,12.8,19.9,13.1z"/>
	<path fill="#AEADB3" d="M35.8,9.4c-0.6,0-1.1,0.2-1.6,0.7s-0.6,1-0.7,1.7l0,0h4.2v-0.2c0-0.7-0.2-1.2-0.5-1.6
		C36.9,9.6,36.4,9.4,35.8,9.4z"/>
	<path fill="#AEADB3" d="M47,0H3C1.3,0,0,1.3,0,3v19c0,1.7,1.3,3,3,3h44c1.7,0,3-1.3,3-3V3C50,1.3,48.7,0,47,0z M16.2,15.8
		c-0.5,0.4-1.2,0.6-2,0.6c-0.9,0-1.6-0.2-2.1-0.6s-0.8-0.9-0.7-1.5l0,0h0.8c0,0.5,0.3,0.9,0.7,1.2s0.9,0.4,1.4,0.4
		c0.6,0,1.1-0.1,1.4-0.4s0.5-0.6,0.5-1c0-0.3-0.1-0.6-0.4-0.9c-0.3-0.3-0.8-0.5-1.5-0.6c-0.9-0.2-1.5-0.4-2-0.7
		c-0.4-0.3-0.6-0.8-0.6-1.3c0-0.6,0.2-1,0.7-1.4c0.5-0.4,1.1-0.6,1.9-0.6c0.8,0,1.5,0.2,2,0.6s0.7,0.9,0.7,1.5l0,0h-0.8
		c0-0.4-0.2-0.8-0.5-1.1s-0.8-0.5-1.4-0.5c-0.6,0-1,0.1-1.3,0.4s-0.5,0.6-0.5,0.9c0,0.3,0.1,0.6,0.4,0.8c0.3,0.2,0.8,0.4,1.5,0.6
		c0.9,0.2,1.5,0.5,2,0.8c0.4,0.3,0.7,0.8,0.7,1.4C17,14.9,16.7,15.4,16.2,15.8z M23.5,16.2c-0.1-0.3-0.1-0.5-0.1-0.7s0-0.4,0-0.6
		c-0.3,0.4-0.6,0.7-1.1,1c-0.5,0.3-1,0.4-1.6,0.4c-0.7,0-1.3-0.2-1.7-0.6c-0.4-0.4-0.6-0.9-0.6-1.6s0.3-1.2,0.9-1.6
		c0.6-0.4,1.3-0.6,2.3-0.6h1.8v-0.9c0-0.5-0.2-0.9-0.5-1.2c-0.3-0.3-0.8-0.5-1.4-0.5c-0.6,0-1,0.1-1.4,0.4c-0.3,0.3-0.5,0.6-0.5,1
		h-0.8l0,0c0-0.6,0.2-1,0.7-1.5c0.5-0.4,1.2-0.6,2-0.6c0.8,0,1.5,0.2,2,0.6s0.7,1,0.7,1.8v3.6c0,0.3,0,0.5,0,0.8s0.1,0.5,0.1,0.7
		H23.5z M29,16.2h-0.7l-2.8-7.4h0.8l2,5.5l0.2,0.9h0l0.3-0.9l2-5.5h0.8L29,16.2z M38.6,12.5h-5.1v0.2c0,0.8,0.2,1.5,0.6,2.1
		c0.4,0.6,1,0.8,1.8,0.8c0.5,0,0.9-0.1,1.2-0.2c0.4-0.1,0.7-0.3,0.9-0.6l0.3,0.6c-0.3,0.3-0.6,0.5-1,0.7c-0.4,0.2-0.9,0.3-1.5,0.3
		c-1,0-1.7-0.3-2.3-1c-0.6-0.7-0.9-1.5-0.9-2.6v-0.4c0-1.1,0.3-1.9,0.9-2.6c0.6-0.7,1.4-1,2.2-1c0.9,0,1.6,0.3,2.1,0.9
		c0.5,0.6,0.7,1.4,0.7,2.3V12.5z"/>
</g>
</svg>
